<?xml version="1.0" standalone="no"?>
<!DOCTYPE svg PUBLIC "-//W3C//DTD SVG 20010904//EN"
 "http://www.w3.org/TR/2001/REC-SVG-20010904/DTD/svg10.dtd">
<svg version="1.0" xmlns="http://www.w3.org/2000/svg"
 width="294.000000pt" height="294.000000pt" viewBox="0 0 294.000000 294.000000"
 preserveAspectRatio="xMidYMid meet">
<metadata>
Created by potrace 1.11, written by Peter Selinger 2001-2013
</metadata>
<g transform="translate(0.000000,294.000000) scale(0.100000,-0.100000)"
fill="#000000" stroke="none">
<path d="M1368 2935 c-2 -1 -30 -6 -63 -10 -191 -21 -431 -114 -620 -239 -115
-77 -301 -262 -377 -376 -181 -273 -260 -543 -253 -870 2 -85 5 -165 8 -176 3
-12 8 -39 11 -60 71 -445 401 -875 821 -1069 48 -22 219 -85 232 -85 1 0 -2
12 -7 26 -6 14 -10 92 -10 173 l0 148 -39 43 c-45 50 -78 111 -97 183 -21 79
-20 1296 1 1386 63 270 302 409 770 448 119 10 722 10 808 0 37 -5 67 -6 67
-2 0 9 -108 114 -165 161 -178 147 -434 262 -672 303 -92 16 -402 28 -415 16z"/>
<path d="M1440 1971 c-76 -24 -127 -70 -161 -146 -20 -45 -23 -67 -24 -220 -1
-93 0 -177 2 -185 4 -13 103 -15 821 -15 l817 0 0 195 c0 173 -2 199 -19 234
-26 52 -73 98 -127 124 -43 20 -53 21 -664 21 -341 -1 -631 -4 -645 -8z"/>
<path d="M1430 1020 c-207 -57 -235 -330 -43 -420 39 -18 60 -21 109 -17 220
17 283 299 91 411 -44 26 -115 38 -157 26z"/>
<path d="M2620 1018 c-67 -18 -130 -78 -154 -144 -46 -134 59 -294 194 -294
27 0 36 9 84 83 59 91 126 219 126 241 0 22 -78 94 -115 106 -47 16 -95 18
-135 8z"/>
<path d="M1720 282 c-6 -2 -10 -43 -10 -94 0 -74 -4 -97 -22 -129 -12 -22 -25
-39 -30 -39 -4 0 -8 -4 -8 -8 0 -12 167 12 265 38 144 38 333 125 437 200 37
27 39 30 17 31 -99 2 -641 3 -649 1z"/>
</g>
</svg>
